<svg fill="none" height="222" viewBox="0 0 279 222" width="279" xmlns="http://www.w3.org/2000/svg"><g fill="#4d4d4d"><path d="m60.9836 220.786-6.2792-5.681v5.681h-1.7044v-12.535h1.7044v5.343l5.9204-5.343h2.265l-6.7278 6.087 7.0866 6.448z"/><path d="m75.74 220.899c-.2242 0-.4709-.068-.6279-.293l-7.2211-9.401v9.603h-1.6371v-11.813c0-.473.4037-.856.8522-.856.2691 0 .4934.067.6503.293l7.1987 9.401v-9.559h1.6371v11.79c-.0224.474-.4036.835-.8522.835z"/><path d="m86.0554 221.011c-3.319 0-5.1355-2.367-5.1355-4.959v-7.778h1.7044v7.8c0 2.007 1.3007 3.427 3.4311 3.427 2.0856 0 3.4312-1.42 3.4312-3.427v-7.8h1.7044v7.778c0 2.592-1.839 4.959-5.1356 4.959zm.4261-13.594h-1.1885l1.7716-2.344h1.7492z"/><path d="m95.6094 220.786v-12.535h1.7043v12.535z"/><path d="m111.306 220.899c-.224 0-.47-.068-.627-.293l-7.222-9.401v9.603h-1.637v-11.813c0-.473.404-.856.852-.856.27 0 .494.067.651.293l7.199 9.401v-9.559h1.637v11.79c0 .474-.404.835-.853.835z"/><path d="m131.109 220.786-1.301-3.224h-5.472l-1.301 3.224h-1.726l5.045-12.174c.135-.316.404-.496.74-.496.314 0 .584.18.718.496l5.046 12.174zm-4.015-10.168-2.22 5.636h4.463z"/><path d="m137.546 209.762v3.81h5.719c.403 0 .74.338.74.744 0 .405-.337.744-.74.744h-5.719v5.726h-1.704v-11.678c0-.451.403-.857.852-.857h7.984v1.511z"/><path d="m159.994 221.011c-3.677 0-6.705-2.728-6.705-6.47s2.826-6.448 6.885-6.448c1.48 0 2.938.294 4.104.79l-.404 1.33c-1.144-.406-2.467-.632-3.566-.632-3.117 0-5.315 1.804-5.315 4.96 0 3.134 2.221 4.96 5.001 4.96 1.436 0 2.714-.564 3.499-1.466v-3.02h1.637v3.404c-.964 1.488-2.893 2.592-5.136 2.592z"/><path d="m177.912 220.786-3.072-5.073h-4.015v5.073h-1.704v-11.678c0-.451.404-.857.852-.857h5.27c2.4 0 3.992 1.691 3.992 3.72 0 1.623-.964 3.021-2.579 3.494l3.229 5.298h-1.973zm-2.758-11.047h-4.351v4.487h4.351c1.278 0 2.377-.812 2.377-2.232 0-1.443-1.099-2.255-2.377-2.255z"/><path d="m184.258 220.786c-.471 0-.852-.406-.852-.857v-10.844c0-.45.404-.856.852-.856h7.715v1.51h-6.862v3.81h5.606c.404 0 .74.338.74.744s-.336.744-.74.744h-5.606v4.216h6.929v1.51h-7.782z"/><path d="m201.079 215.691v5.095h-1.682v-5.095l-4.799-7.44h1.726l3.903 5.975 3.902-5.975h1.726z"/><path d="m218.189 220.899c-.224 0-.471-.068-.628-.293l-7.221-9.401v9.603h-1.637v-11.813c0-.473.404-.856.852-.856.269 0 .494.067.651.293l7.198 9.401v-9.559h1.637v11.79c-.022.474-.403.835-.852.835z"/><path d="m223.549 220.786v-12.535h1.704v12.535z"/></g><g fill="#4600c8"><path d="m17.8061 187.421c-.5158 1.262-1.6595 1.961-2.9602 1.961s-2.4444-.699-2.9602-1.961l-11.8857-29.263h6.83988l8.00602 19.704 8.006-19.704h6.8399z"/><path d="m39.9174 189.111c-1.9062 0-3.476-1.578-3.476-3.494v-23.987c0-1.916 1.5698-3.494 3.476-3.494h19.1517v5.996h-15.6757v6.178h11.2354c1.6595 0 3.005 1.352 3.005 3.02 0 1.669-1.3455 2.976-3.005 2.976h-11.2354v6.786h15.6757v5.997h-19.1517zm10.4953-33.049h-4.2609l4.2609-6.177h6.7053z"/><path d="m71.9878 189.111c-1.9062 0-3.4312-1.578-3.4312-3.494v-27.459h6.8848v24.957h15.9896v5.996z"/><path d="m115.112 183.475h-9.239v5.614h-6.9296v-30.931h6.9296v4.937h9.239c6.145 0 10.451 4.645 10.451 10.168s-4.306 10.212-10.451 10.212zm-1.098-14.766h-8.141v9.198h8.141c2.399 0 4.44-2.052 4.44-4.644 0-2.615-2.041-4.554-4.44-4.554z"/><path d="m145.095 176.915v12.174h-6.93v-12.174l-10.495-18.779h6.93l7.019 12.647 6.974-12.647h6.93zm-1.278-20.853h-4.261l4.261-6.177h6.705z"/><path d="m196.719 189.111v-30.953h6.929v30.953z"/><path d="m238.432 189.337c-1.099.135-2.265-.135-3.095-1.105l-15.204-17.945v18.824h-6.93v-27.797c0-1.916 1.57-3.494 3.476-3.494 1.054 0 1.839.271 2.646 1.217 0 0 4.8 5.727 15.205 17.855v-18.734h6.93v27.752c-.023 1.759-1.323 3.201-3.028 3.427z"/><path d="m265.814 189.607c-9.105 0-16.416-6.695-16.416-15.983 0-9.852 6.93-15.939 16.932-15.939 3.386 0 7.109.699 9.979 1.758l-1.435 5.817c-2.31-.744-5.539-1.398-7.849-1.398-7.176 0-10.675 3.449-10.675 9.762 0 5.523 3.656 9.806 9.487 9.806 2.87 0 5.001-.924 6.324-2.502v-7.575h6.84v8.927c-2.086 3.991-7.132 7.327-13.187 7.327z"/><path d="m169.025 158.113h-3.746c-1.906 0-3.476 1.578-3.476 3.495v8.679h-3.319v5.997h3.319v9.288c0 1.916 1.57 3.494 3.476 3.494h3.746c12.536 0 19.734-6.402 19.734-15.488.023-9.04-7.198-15.465-19.734-15.465zm1.255 24.776h-1.525v-6.605h3.319c1.638 0 2.983-1.353 2.983-2.999 0-1.645-1.345-2.998-2.983-2.998h-3.319v-5.997h1.525c6.055 0 11.281 2.706 11.281 9.288 0 6.628-5.226 9.311-11.281 9.311z"/><path d="m187.874 45.6181c.83-.496 1.525-1.6909 1.525-2.6603v-12.557c0-.9694-.695-2.1643-1.525-2.6602l-10.809-6.2673c-.83-.496-2.22-.496-3.05 0l-10.832 6.2673c-.83.4959-1.525 1.6908-1.525 2.6602v12.557c0 .9694.695 2.1643 1.525 2.6603l10.809 6.2672c.83.496 2.221.496 3.05 0z"/></g><path d="m175.541 51.0061c0 .6988-.358 1.1046-.852 1.1046-.202 0-.426-.0676-.673-.2029l-7.535-4.3735c-1.256-.7665-2.87-.8341-4.216-.0451l-7.109 4.1256c-1.3.7665-2.063 2.1417-2.085 3.5394v-3.5845c0-.0676 0-.1353 0-.1804 0-.0225 0-.0676-.023-.0901-.112-.9018-.74-1.9388-1.502-2.3672l-3.275-1.8937c1.256.7665 2.871.744 4.217-.0451l7.109-4.1255c1.368-.7891 2.108-2.2319 2.063-3.6973v-8.161-.5861c0-.9694.695-1.3527 1.525-.8792l10.809 6.2898c.83.496 1.525 1.6908 1.525 2.6602z" fill="#9d84de"/><path d="m189.4 42.9579c0 .9693-.695 2.1642-1.525 2.6602l-10.809 6.2898c-.83.4959-1.525.0901-1.525-.8793v-12.557c0-.9694.695-2.1643 1.525-2.6602l10.809-6.2673c.83-.496 1.525-.0902 1.525.8792z" fill="#000e91"/><path d="m187.874 87.7756c.83-.496 1.525-1.6908 1.525-2.6602v-12.5571c0-.9694-.695-2.1642-1.525-2.6602l-10.809-6.2673c-.83-.4959-2.22-.4959-3.05 0l-10.832 6.2673c-.83.496-1.525 1.6908-1.525 2.6602v12.5571c0 .9694.695 2.1642 1.525 2.6602l10.809 6.2672c.83.496 2.221.496 3.05 0z" fill="#4600c8"/><path d="m175.542 93.1636c0 .6989-.337 1.0821-.852 1.0821-.202 0-.427-.0676-.673-.2029l-1.615-.9243-5.943-3.4492c-1.233-.7665-2.848-.5862-4.193.1803l-7.109 4.1256c-1.301.7665-2.064 2.1417-2.086 3.5394v-3.7198c0-.0676 0-.1352 0-.1803 0-.0226 0-.0677-.022-.0902-.113-.9018-.74-1.9388-1.503-2.3671l-3.005-1.7585c1.211.6313 2.691.6989 3.969-.0225l7.109-4.1256c1.368-.789 2.108-2.2319 2.064-3.6972v-7.8679-1.0822c0-.9693.695-1.3751 1.525-.8792l10.809 6.2898c.83.496 1.525 1.6908 1.525 2.6602z" fill="#9d84de"/><path d="m189.4 85.1153c0 .9694-.695 2.1643-1.525 2.6602l-10.809 6.2898c-.83.496-1.525.0902-1.525-.8792v-12.5571c0-.9693.695-2.1642 1.525-2.6602l10.809-6.2672c.83-.496 1.525-.0902 1.525.8792z" fill="#000e91"/><path d="m151.546 24.5167c.83-.4959 1.525-1.6908 1.525-2.6602v-12.53451c0-.96939-.695-2.16423-1.525-2.6602l-10.832-6.289812c-.83-.495971-2.22-.495971-3.05 0l-10.809 6.267262c-.83.49597-1.525 1.69081-1.525 2.66021v12.55705c0 .9694.695 2.1643 1.525 2.6602l10.809 6.2673c.83.496 2.22.496 3.05 0z" fill="#4600c8"/><path d="m139.189 17.3703c0-.9694-.695-2.1643-1.525-2.6603l-10.809-6.28976c-.83-.49597-1.525-.09018-1.525.87922v12.55704c0 .9694.695 2.1643 1.525 2.6602l10.809 6.2673c.83.496 1.525.0902 1.525-.8792z" fill="#9d84de"/><path d="m153.07 21.8565c0 .9694-.695 2.1643-1.525 2.6602l-10.809 6.2898c-.83.496-1.525.0902-1.525-.8792v-12.5571c0-.9693.695-2.1642 1.525-2.6602l10.809-6.28976c.83-.49597 1.525-.09018 1.525.87922z" fill="#000e91"/><path d="m115.216 45.6181c.83-.496 1.525-1.6909 1.525-2.6603v-12.557c0-.9694-.695-2.1643-1.525-2.6602l-10.832-6.2673c-.83-.496-2.22-.496-3.05 0l-10.809 6.2673c-.8298.4959-1.525 1.6908-1.525 2.6602v12.557c0 .9694.6952 2.1643 1.525 2.6603l10.809 6.2672c.83.496 2.22.496 3.05 0z" fill="#4600c8"/><path d="m102.859 38.449c0-.9694-.695-2.1642-1.525-2.6602l-10.809-6.2898c-.8298-.496-1.525-.0902-1.525.8792v12.5571c0 .9694.6952 2.1642 1.525 2.6602l10.809 6.2672c.83.496 1.525.0902 1.525-.8792z" fill="#9d84de"/><path d="m130.039 47.0609-3.185 1.8486c-.762.4509-1.413 1.4879-1.502 2.4122v.0226.0676.1578 3.562c-.023-1.3978-.763-2.773-2.086-3.5169l-7.109-4.1256c-1.368-.789-2.983-.7214-4.216.0451l-7.535 4.3736c-.83.4734-1.525.0901-1.525-.8793v-12.557c0-.9694.695-2.1643 1.525-2.6602l10.809-6.2673c.83-.496 1.525-.0902 1.525.8792v8.7471c-.045 1.4654.695 2.9082 2.063 3.6973l7.109 4.1255c1.323.744 2.893.7665 4.127.0677z" fill="#000e91"/><path d="m115.216 87.7756c.83-.496 1.525-1.6908 1.525-2.6602v-12.5571c0-.9694-.695-2.1642-1.525-2.6602l-10.809-6.2673c-.83-.4959-2.221-.4959-3.05 0l-10.832 6.2673c-.8298.496-1.525 1.6908-1.525 2.6602v12.5571c0 .9694.6952 2.1642 1.525 2.6602l10.809 6.2672c.83.496 2.22.496 3.05 0z" fill="#4600c8"/><path d="m102.859 80.6065c0-.9693-.695-2.1642-1.525-2.6602l-10.809-6.2898c-.8298-.4959-1.525-.0901-1.525.8793v12.557c0 .9694.6952 2.1643 1.525 2.6602l10.809 6.2673c.83.496 1.525.0902 1.525-.8792z" fill="#9d84de"/><path d="m130.061 89.286-3.207 1.8711c-.762.4509-1.413 1.4879-1.502 2.4122v.0902.1578 3.4718c-.023-1.3977-.763-2.7729-2.086-3.5169l-7.109-4.1255c-1.368-.7891-2.983-.7214-4.216.0451l-7.535 4.3735c-.83.4734-1.525.0902-1.525-.8792v-12.5571c0-.9694.695-2.1642 1.525-2.6602l10.809-6.2898c.247-.1353.471-.2029.673-.2029.493 0 .852.4058.852 1.0821v.2931 8.454c-.045 1.4654.695 2.9082 2.063 3.6973l7.109 4.1255c1.323.7665 2.916.8793 4.149.1579z" fill="#000e91"/><path d="m153.071 93.7948v12.5572.045.023c-.022.766-.471 1.668-1.077 2.231-.134.136-.291.248-.448.339l-6.616 3.832-4.193 2.435c-.045.022-.112.067-.157.09s-.068.023-.112.045c-.74.316-1.705.316-2.445.023 0 0-.022 0-.022-.023-.045-.022-.068-.022-.112-.045-.023 0-.045-.023-.068-.023-.045-.022-.089-.045-.112-.067l-10.809-6.267c-.112-.068-.202-.136-.314-.203-.045-.045-.09-.091-.135-.136-.627-.586-1.076-1.533-1.076-2.322v-8.9046c0-.0676 0-.1127 0-.1803v-3.4493c0-.0451 0-.1127 0-.1578 0-.0225 0-.0676 0-.0902.09-.9243.74-1.9613 1.503-2.4122l3.206-1.8711 7.603-4.4187c.83-.496 2.22-.496 3.05 0l7.535 4.3736.202.1127.044.0225 3.006 1.7585c.762.4509 1.39 1.4654 1.502 2.3671 0 .0226 0 .0677.023.0902.022.1127.022.1803.022.2254z" fill="#4600c8"/><path d="m139.189 114.4c0 .902-.583 1.308-1.345.97-.023 0-.045-.023-.068-.023-.044-.022-.089-.045-.112-.068l-10.809-6.267c-.112-.067-.202-.135-.314-.203-.045-.045-.09-.09-.134-.135-.628-.586-1.077-1.533-1.077-2.322v-8.905c0-.0676 0-.1127 0-.1803v-3.4718c0-.0451 0-.1128 0-.1578 0-.0226 0-.0677 0-.0902.112-.7891.74-1.0821 1.503-.6313l4.619 2.6828 6.212 3.6071c.83.4959 1.525 1.6905 1.525 2.6605z" fill="#9d84de"/><path d="m153.07 93.7948v3.855 4.3962 4.283.045.023c-.022.766-.471 1.668-1.076 2.232-.135.135-.292.248-.449.338l-6.615 3.832-4.194 2.435c-.045.023-.112.068-.157.09-.045.023-.067.023-.112.046-.695.27-1.234-.136-1.256-.992v-12.58c0-.969.695-2.1643 1.525-2.6602l6.145-3.5846 4.664-2.7053c.74-.4283 1.368-.1578 1.503.6087 0 .0226 0 .0677.022.0902z" fill="#000e91"/><path d="m153.07 51.5471v12.5571c0 .9694-.695 2.1642-1.525 2.6602l-3.969 2.2995-6.863 3.9903c-.045.0225-.112.0676-.157.0902-.045.0225-.067.0225-.112.0451-.74.3156-1.704.3156-2.444.0225-.045-.0225-.09-.0225-.135-.0451-.022 0-.045-.0225-.067-.0225-.045-.0226-.09-.0451-.112-.0677l-10.809-6.2898c-.83-.4959-1.525-1.6908-1.525-2.6602v-8.8147c0-.0677 0-.1127 0-.1804v-3.562c0-.045 0-.0901 0-.1578 0-.0225 0-.045 0-.0676v-.0225c.089-.9243.74-1.9614 1.502-2.4123l3.185-1.8486 7.624-4.4186c.83-.496 2.221-.496 3.05 0l7.535 4.3735 3.275 1.8937c.762.4509 1.39 1.4654 1.502 2.3672 0 .0225 0 .0676.022.0902.023.0676.023.1352.023.1803z" fill="#4600c8"/><path d="m139.189 72.1524c0 .9018-.583 1.3076-1.345.9694-.023 0-.045-.0225-.068-.0225-.044-.0226-.089-.0451-.112-.0676l-10.809-6.2899c-.83-.4959-1.525-1.6908-1.525-2.6602v-8.8147c0-.0676 0-.1127 0-.1804v-3.5619c0-.0451 0-.0902 0-.1578 0-.0226 0-.0451 0-.0677v-.0225c.112-.7891.74-1.0821 1.503-.6312l4.619 2.6827 6.19 3.5845c.83.496 1.525 1.6908 1.525 2.6602z" fill="#9d84de"/><path d="m153.071 51.5697v3.6973 8.6118.2254c0 .9694-.695 2.1643-1.525 2.6603l-3.969 2.2995-6.863 3.9903c-.044.0225-.112.0676-.157.0901-.044.0226-.067.0226-.112.0451-.717.2706-1.256-.1352-1.256-1.0144v-12.5571c0-.9694.696-2.1643 1.525-2.6602l6.19-3.5846 4.62-2.6827c.74-.4283 1.39-.1578 1.502.6087 0 .0225 0 .0676.023.0902.022.0451.022.1127.022.1803z" fill="#000e91"/></svg>